#!OML:ASF G:\JayActor3\Patient Classification 1\Patient 1\Session 5\male.ASF
:FULLY-SPECIFIED
:DEGREES
481
root 15.861 17.698 -5.17349 -51.8767 86.1498 -50.5446
lowerback 0.686666 -0.925276 3.58029
upperback 0.0385123 -1.20695 -0.435966
thorax -0.428884 -0.610707 -2.44055
lowerneck -5.66598 0.601898 1.69113
upperneck 10.8268 0.56673 1.4251
head 4.60452 0.458707 0.216593
rclavicle -4.34841e-015 7.95139e-016
rhumerus -36.6424 -4.41679 -85.6868
rradius 29.6952
rwrist -1.91413
rhand -23.009 -37.2139
rfingers 7.12502
rthumb 3.43437 -67.166
lclavicle -4.34841e-015 7.95139e-016
lhumerus -38.199 11.9853 77.3255
lradius 23.0312
lwrist 16.26
lhand -17.4711 11.0365
lfingers 7.12502
lthumb 8.78079 40.8338
rfemur 6.31604 4.84536 24.4105
rtibia 40.5522
rfoot 23.223 -17.7585
rtoes 11.8282
lfemur -6.6129 10.3137 -18.0749
ltibia 19.9955
lfoot 8.68338 -9.55144
ltoes -23.7596
482
root 15.7531 17.6953 -5.16588 -52.3497 85.8943 -51.0614
lowerback 0.553734 -0.858273 3.90058
upperback 0.0370231 -1.12032 -0.389688
thorax -0.355151 -0.566396 -2.57606
lowerneck -5.67831 0.613165 1.71208
upperneck 10.7964 0.579743 1.4214
head 4.59603 0.465243 0.21221
rclavicle 1.16227e-014 3.57812e-015
rhumerus -36.5896 -4.33344 -85.7487
rradius 29.8134
rwrist -1.98521
rhand -23.0235 -37.1629
rfingers 7.12502
rthumb 3.42045 -67.1152
lclavicle 1.16227e-014 3.57812e-015
lhumerus -38.1834 11.9775 77.3963
lradius 23.1402
lwrist 16.4346
lhand -17.4471 11.0107
lfingers 7.12502
lthumb 8.80388 40.807
rfemur 7.22822 5.16083 24.7806
rtibia 38.5811
rfoot 22.9589 -17.1177
rtoes 10.6403
lfemur -7.15363 10.2518 -17.8581
ltibia 20.197
lfoot 8.73502 -9.49287
ltoes -23.8461
483
root 15.6428 17.6923 -5.15777 -52.7974 85.5932 -51.5628
lowerback 0.425047 -0.785428 4.26191
upperback 0.0343233 -1.02635 -0.334825
thorax -0.284212 -0.518247 -2.72545
lowerneck -5.67333 0.625215 1.72906
upperneck 10.7526 0.593632 1.42853
head 4.57907 0.472385 0.212088
rclavicle 1.20203e-014 -3.18055e-015
rhumerus -36.5235 -4.22667 -85.8285
rradius 29.9301
rwrist -2.07158
rhand -23.038 -37.1305
rfingers 7.12502
rthumb 3.40642 -67.083
lclavicle 1.20203e-014 -3.18055e-015
lhumerus -38.1604 11.9624 77.4683
lradius 23.2443
lwrist 16.585
lhand -17.4144 10.9896
lfingers 7.12502
lthumb 8.83545 40.7847
rfemur 8.07609 5.46464 25.182
rtibia 36.7742
rfoot 22.5011 -16.1577
rtoes 8.78026
lfemur -7.75203 10.156 -17.5971
ltibia 20.4849
lfoot 8.77411 -9.36664
ltoes -23.8499
484
root 15.5297 17.6895 -5.14888 -53.2293 85.2353 -52.0615
lowerback 0.307457 -0.705887 4.66951
upperback 0.0257519 -0.923468 -0.267134
thorax -0.224315 -0.465703 -2.88712
lowerneck -5.6506 0.63922 1.74241
upperneck 10.7013 0.610361 1.44318
head 4.55573 0.481045 0.215186
rclavicle 1.27098e-014 -1.03368e-014
rhumerus -36.4461 -4.10533 -85.9203
rradius 30.0396
rwrist -2.14372
rhand -23.0421 -37.104
rfingers 7.12502
rthumb 3.40243 -67.0566
lclavicle 1.27098e-014 -1.03368e-014
lhumerus -38.1338 11.9491 77.5361
lradius 23.3401
lwrist 16.7024
lhand -17.3894 10.9717
lfingers 7.12502
lthumb 8.85963 40.7657
rfemur 8.8444 5.74184 25.6272
rtibia 35.162
rfoot 21.8484 -15.1199
rtoes 6.72048
lfemur -8.40508 10.0313 -17.2782
ltibia 20.8441
lfoot 8.81545 -9.16203
ltoes -23.7472
485
root 15.4133 17.6868 -5.13881 -53.5814 84.8385 -52.4872
lowerback 0.211675 -0.624995 5.09864
upperback 0.0149819 -0.818289 -0.188764
thorax -0.177666 -0.412089 -3.04923
lowerneck -5.62648 0.658233 1.74678
upperneck 10.6525 0.633995 1.46535
head 4.53298 0.493159 0.222816
rclavicle -1.98785e-016 -7.95139e-016
rhumerus -36.3457 -3.96962 -86.0236
rradius 30.1326
rwrist -2.19009
rhand -23.0432 -37.0975
rfingers 7.12502
rthumb 3.40135 -67.0501
lclavicle -1.98785e-016 -7.95139e-016
lhumerus -38.1021 11.9478 77.5971
lradius 23.4294
lwrist 16.7881
lhand -17.3753 10.9662
lfingers 7.12502
lthumb 8.87316 40.7596
rfemur 9.52992 5.98063 26.1028
rtibia 33.7355
rfoot 21.0318 -14.1976
rtoes 4.60725
lfemur -9.08991 9.89189 -16.9177
ltibia 21.2364
lfoot 8.87829 -8.89763
ltoes -23.5814
486
root 15.2935 17.6842 -5.12734 -53.8031 84.4229 -52.7855
lowerback 0.140795 -0.545332 5.52304
upperback 0.00313037 -0.713876 -0.10355
thorax -0.144793 -0.359 -3.20097
lowerneck -5.60477 0.680452 1.74983
upperneck 10.6129 0.662345 1.4845
head 4.51412 0.507538 0.229983
rclavicle 7.41715e-015 -1.98785e-015
rhumerus -36.2214 -3.82088 -86.1359
rradius 30.2079
rwrist -2.20431
rhand -23.0358 -37.1003
rfingers 7.12502
rthumb 3.40851 -67.0528
lclavicle 7.41715e-015 -1.98785e-015
lhumerus -38.0676 11.9722 77.6451
lradius 23.5104
lwrist 16.831
lhand -17.3746 10.96
lfingers 7.12502
lthumb 8.87384 40.7534
rfemur 10.1298 6.17922 26.5914
rtibia 32.4519
rfoot 20.0637 -13.5618
rtoes 3.0004
lfemur -9.7831 9.75198 -16.5348
ltibia 21.6168
lfoot 8.98458 -8.59255
ltoes -23.3683
